<svg width="60" height="24" viewBox="0 0 60 24" fill="none" xmlns="http://www.w3.org/2000/svg">
<path d="M30 1L32.3607 8.26543H40L33.8197 12.7557L36.1803 20.0211L30 15.5309L23.8197 20.0211L26.1803 12.7557L20 8.26543H27.6393L30 1Z" fill="#F9E42C" stroke="#272626" stroke-opacity="0.95" stroke-linecap="round" stroke-linejoin="round"/>
<path d="M53.2081 7.39404L52.0676 12.9104L57.0295 15.7751L51.3628 16.3197L50.2223 21.836L47.8605 16.6563L42.1938 17.2008L46.4009 13.4549L44.0391 8.27515L49.001 11.1399L53.2081 7.39404Z" fill="#F9E42C" stroke="#272626" stroke-opacity="0.95" stroke-linecap="round" stroke-linejoin="round"/>
<path d="M6.49519 7.75L10.7023 11.4958L15.6641 8.6311L13.3024 13.8109L17.5094 17.5567L11.8427 17.0122L9.48094 22.192L8.34049 16.6756L2.67377 16.1311L7.63565 13.2664L6.49519 7.75Z" stroke="#F3F3F3" stroke-opacity="0.95" stroke-linecap="round" stroke-linejoin="round"/>
<path d="M6.49519 7.75L10.7023 11.4958L15.6641 8.6311L13.3024 13.8109L17.5094 17.5567L11.8427 17.0122L9.48094 22.192L8.34049 16.6756L2.67377 16.1311L7.63565 13.2664L6.49519 7.75Z" stroke="#F3F3F3" stroke-opacity="0.95" stroke-linecap="round" stroke-linejoin="round"/>
<path d="M6.49519 7.75L10.7023 11.4958L15.6641 8.6311L13.3024 13.8109L17.5094 17.5567L11.8427 17.0122L9.48094 22.192L8.34049 16.6756L2.67377 16.1311L7.63565 13.2664L6.49519 7.75Z" fill="#F9E42C" stroke="#272626" stroke-opacity="0.95" stroke-linecap="round" stroke-linejoin="round"/>
</svg>
